<svg width="254" height="72" viewBox="0 0 254 72" fill="none" xmlns="http://www.w3.org/2000/svg" >
    <g clip-path="url(#clip0_9010_5248)">
        <path d="M15.2 0L0 36.6L14.7 72L37 61L27.1 36.6L38 11L15.2 0Z" fill="currentColor"/>
        <path d="M238.8 0L216 11L226.9 36.6L217 61L239.3 72L254 36.6L238.8 0Z" fill="currentColor"/>
        <path d="M55.4 53.9H67.5V24.6H55.4V53.9ZM61.3 22.4C63.5 22.4 65.3 21.8 66.6 20.6C68 19.4 68.6 17.8 68.6 16C68.6 14.2 68 12.8 66.6 11.6C65.2 10.4 63.4 10 61.3 10C59.1 10 57.3 10.6 56 11.8C54.6 13 54 14.4 54 16.2C54 18 54.6 19.4 56 20.6C57.5 21.9 59.1 22.4 61.3 22.4ZM93.2 24.2C91.4 24.2 89.8 24.4 88.3 25C86.7 25.6 85.5 26.4 84.3 27.6V24.6H72.8V53.9H84.9V40.3C84.9 38.3 85.3 36.7 86.1 35.7C86.9 34.7 88.1 34.3 89.5 34.3C91.9 34.3 93.1 35.9 93.1 39.2V53.8H105V37.3C105 32.9 103.8 29.6 101.6 27.4C99.5 25.2 96.7 24.2 93.2 24.2ZM130.6 24.2C128.8 24.2 127.2 24.4 125.7 25C124.1 25.6 122.9 26.4 121.7 27.6V24.6H110.2V53.9H122.3V40.3C122.3 38.3 122.7 36.7 123.5 35.7C124.3 34.7 125.5 34.3 126.9 34.3C129.3 34.3 130.5 35.9 130.5 39.2V53.8H142.8V37.3C142.8 32.9 141.6 29.6 139.4 27.4C137.1 25.2 134.1 24.2 130.6 24.2ZM164.8 45.6C162 45.6 160.2 44.8 159.5 43L179.5 39.2C179.5 36 178.7 33.5 177.3 31.1C175.9 28.9 173.9 27.1 171.6 26C169.3 24.9 166.5 24.2 163.7 24.2C160.5 24.2 157.8 24.8 155.2 26.2C152.6 27.4 150.6 29.4 149.3 31.5C147.9 33.9 147.1 36.4 147.1 39.4C147.1 42.4 147.9 44.9 149.3 47.1C150.7 49.5 152.9 51.3 155.4 52.4C158.2 53.8 161.1 54.4 164.7 54.4C170.2 54.4 174.6 52.8 177.6 49.7L171.1 43.4C170.1 44.2 169.1 44.8 168.3 45C167.4 45.2 166.2 45.6 164.8 45.6ZM163.6 32.3C164.6 32.3 165.6 32.5 166.4 33.1C167.2 33.7 167.8 34.5 168 35.3L158.7 37.1C158.9 35.5 159.5 34.3 160.3 33.5C161 32.7 162.2 32.3 163.6 32.3ZM194.7 27.8V24.6H183.2V53.9H195.3V40.9C195.3 36.7 197.3 34.6 201.4 34.6C202.2 34.6 203.2 34.6 204 34.8V24C200 24.2 196.9 25.4 194.7 27.8Z" fill="white"/>
    </g>
    <defs>
        <clipPath id="clip0_9010_5248">
            <rect width="254" height="72" fill="white"/>
        </clipPath>
    </defs>
</svg>
