<svg width="131" height="36" viewBox="0 0 131 36" fill="none" xmlns="http://www.w3.org/2000/svg">
<path d="M18.6589 4.52356L9.23478 5.92196e-07L0.941589 17.9058L9.23478 36L18.6589 31.288L12.6275 17.9058L18.6589 4.52356Z" fill="#AF5CAA"/>
<path d="M110.261 31.4764L119.685 36L127.978 18.0942L119.685 -7.25014e-07L110.261 4.71204L116.292 18.0942L110.261 31.4764Z" fill="#BB4BAD"/>
<path d="M96.3741 15.0046C97.3844 13.8428 98.8745 13.2619 100.845 13.2619V18.3133C100.39 18.2459 99.9689 18.2122 99.5817 18.2122C97.6285 18.2122 96.6519 19.2057 96.6519 21.1925V27.3298H90.9439V13.5145H96.3741V15.0046Z" fill="white"/>
<path d="M82.2476 23.3646C82.8538 23.3646 83.3589 23.2888 83.763 23.1373C84.1839 22.9857 84.6385 22.7247 85.1268 22.3543L88.1071 25.3598C86.7264 26.8415 84.7143 27.5824 82.0708 27.5824C80.4039 27.5824 78.939 27.2793 77.6762 26.6732C76.4133 26.0502 75.4367 25.1915 74.7464 24.097C74.0561 23.0026 73.7109 21.7734 73.7109 20.4095C73.7109 19.0289 74.0561 17.7997 74.7464 16.7221C75.4367 15.6276 76.3797 14.7773 77.5751 14.1712C78.7875 13.565 80.1429 13.2619 81.6414 13.2619C83.0053 13.2619 84.2597 13.5398 85.4047 14.0954C86.5496 14.6342 87.4589 15.4424 88.1324 16.52C88.8059 17.5808 89.1426 18.8521 89.1426 20.3338L79.6967 22.1522C80.1176 22.9605 80.9679 23.3646 82.2476 23.3646ZM81.6667 17.1515C81.01 17.1515 80.4712 17.3451 80.0503 17.7324C79.6462 18.1196 79.402 18.6921 79.3178 19.4498L83.7377 18.5911C83.5862 18.1533 83.3252 17.8081 82.9548 17.5556C82.6012 17.2862 82.1718 17.1515 81.6667 17.1515Z" fill="white"/>
<path d="M66.0603 13.2619C67.7609 13.2619 69.1248 13.7755 70.1519 14.8026C71.1958 15.8297 71.7178 17.3788 71.7178 19.4498V27.3298H66.0098V20.4348C66.0098 18.8521 65.4458 18.0607 64.3176 18.0607C63.6778 18.0607 63.1558 18.288 62.7517 18.7426C62.3645 19.1804 62.1708 19.8792 62.1708 20.8389V27.3298H56.4628V13.5145H61.893V14.8784C62.4318 14.3396 63.0548 13.9355 63.762 13.6661C64.4692 13.3966 65.2353 13.2619 66.0603 13.2619Z" fill="white"/>
<path d="M48.3265 13.2619C50.0271 13.2619 51.3909 13.7755 52.418 14.8026C53.462 15.8297 53.9839 17.3788 53.9839 19.4498V27.3298H48.276V20.4348C48.276 18.8521 47.7119 18.0607 46.5838 18.0607C45.9439 18.0607 45.422 18.288 45.0179 18.7426C44.6306 19.1804 44.437 19.8792 44.437 20.8389V27.3298H38.729V13.5145H44.1592V14.8784C44.698 14.3396 45.321 13.9355 46.0281 13.6661C46.7353 13.3966 47.5014 13.2619 48.3265 13.2619Z" fill="white"/>
<path d="M30.491 13.5145H36.199V27.3298H30.491V13.5145ZM33.345 12.4032C32.3179 12.4032 31.4844 12.1338 30.8446 11.595C30.2216 11.0394 29.9101 10.3406 29.9101 9.49872C29.9101 8.65684 30.2216 7.96649 30.8446 7.42768C31.4844 6.87204 32.3179 6.59422 33.345 6.59422C34.3889 6.59422 35.2224 6.8552 35.8454 7.37717C36.4684 7.89914 36.7799 8.57265 36.7799 9.39769C36.7799 10.2733 36.4684 10.9973 35.8454 11.5698C35.2224 12.1254 34.3889 12.4032 33.345 12.4032Z" fill="white"/>
</svg>
